<svg xmlns="http://www.w3.org/2000/svg" width="24" height="24" viewBox="0 0 24 24" fill='white'>
    <path d="M21.155 8.64c-.909 1.519-2.327 3.067-4.097 3.004-.413.706-.852 1.677-1.339 2.803l-1.312.553c.936-2.343 2.231-4.961 3.698-6.994-.67.529-1.746 1.637-2.662 2.783-1.098-1.828-.3-3.691.973-5.179.021.641.359 1.196.601 1.475-.087-.53-.114-1.489.195-2.351.718-.732 1.364-1.271 2.113-1.76-.083.478.08 1.026.262 1.361.024-.49.224-1.43.521-1.84.924-.727 2.332-1.373 3.892-1.495-.081.973-.436 2.575-1.024 3.604-.515.404-1.221.68-1.791.833.493.089 1.031.077 1.494-.001-.269.743-.552 1.428-.998 2.276-.679.468-1.578.732-2.203.825.46.187 1.272.245 1.677.103zm-13.841 3.805l.645.781 4.773-2.791-.668-.768-4.75 2.778zm6.96-.238l-.668-.767-4.805 2.808.645.781 4.828-2.822zm4.679.007c-.421.203-.851.341-1.286.398-.12.231-.246.494-.377.773l.298.342c.623.692.459 1.704-.376 2.239-.773.497-5.341 3.376-6.386 4.035-.074-.721-.358-1.391-.826-1.948-.469-.557-6.115-7.376-7.523-9.178-.469-.6-.575-1.245-.295-1.816.268-.549.842-.918 1.43-.918.919 0 1.408.655 1.549 1.215.16.641-.035 1.231-.623 1.685l1.329 1.624 7.796-4.446c1.422-1.051 1.822-2.991.93-4.513-.618-1.053-1.759-1.706-2.978-1.706-1.188 0-.793-.016-9.565 4.475-1.234.591-2.05 1.787-2.05 3.202 0 .87.308 1.756.889 2.487 1.427 1.794 7.561 9.185 7.616 9.257.371.493.427 1.119.15 1.673-.277.555-.812.886-1.407.886-.408 0-.793-.154-1.085-.435-.194-.187-5.442-5.299-5.442-5.299-.251-.245-.573-.367-.896-.367-.496 0-.976.278-1.204.756-.251.515-.197 1.126.145 1.569l5.49 5.336c.808.787 1.877 1.221 2.995 1.221 1.855 0 3.535-1.066 4.347-2.734.727-1.499.458-3.23-.686-4.45-.375-.417-1.064-1.207-1.864-2.113.185-.337.358-.668.526-.991.651.01 1.478-.157 2.197-.619 1.25-1.526 1.924-3.76 2.232-5.276-.84.439-1.692.685-2.477.719z" />
</svg>